<svg width="600" height="600" viewBox="0 0 600 600" fill="none" xmlns="http://www.w3.org/2000/svg">
<g clip-path="url(#clip0_13_2)">
<circle cx="60" cy="419" r="60" fill="#FF80ED"/>
<rect y="359" width="120" height="60" fill="#FF80ED"/>
<rect x="60" y="359" width="60" height="120" fill="#FF80ED"/>
<circle cx="540" cy="539" r="60" transform="rotate(-90 540 539)" fill="#0A047A"/>
<rect x="480" y="599" width="120" height="60" transform="rotate(-90 480 599)" fill="#0A047A"/>
<rect x="480" y="539" width="60" height="120" transform="rotate(-90 480 539)" fill="#0A047A"/>
<path fill-rule="evenodd" clip-rule="evenodd" d="M120.008 419C120.003 419.333 120 419.666 120 420C120 453.137 146.863 480 180 480C213.137 480 240 453.137 240 420C240 386.863 213.137 360 180 360C179.331 360 178.664 360.011 178 360.033V419H120.008Z" fill="#2B6AFF"/>
<mask id="mask0_13_2" style="mask-type:alpha" maskUnits="userSpaceOnUse" x="0" y="480" width="120" height="120">
<circle cx="60" cy="540" r="60" fill="#0A047A"/>
</mask>
<g mask="url(#mask0_13_2)">
<rect x="60" y="481" width="60" height="59" fill="#2B6AFF"/>
</g>
<mask id="mask1_13_2" style="mask-type:alpha" maskUnits="userSpaceOnUse" x="-53" y="487" width="165" height="165">
<rect width="151.872" height="80.4031" transform="matrix(-0.707107 -0.707107 -0.707107 0.707107 111.244 594.39)" fill="#C4C4C4"/>
</mask>
<g mask="url(#mask1_13_2)">
<circle cx="60.4757" cy="538.076" r="60" fill="#0A047A"/>
</g>
<path fill-rule="evenodd" clip-rule="evenodd" d="M600 119C600 85.8629 573.137 59 540 59C506.863 59 480 85.8629 480 119H600Z" fill="#2B6AFF"/>
<path fill-rule="evenodd" clip-rule="evenodd" d="M600 59C600 25.8629 573.137 -1 540 -1C506.863 -1 480 25.8629 480 59H600Z" fill="#2B6AFF"/>
<path fill-rule="evenodd" clip-rule="evenodd" d="M480 479C446.863 479 420 505.863 420 539C420 572.137 446.863 599 480 599V479Z" fill="#FEC810"/>
<mask id="path-15-inside-1_13_2" fill="white">
<path fill-rule="evenodd" clip-rule="evenodd" d="M480 238C413.726 238 360 291.95 360 358.5C360 425.05 413.726 479 480 479V418.75C446.863 418.75 420 391.775 420 358.5C420 325.225 446.863 298.25 480 298.25V238Z"/>
</mask>
<path fill-rule="evenodd" clip-rule="evenodd" d="M480 238C413.726 238 360 291.95 360 358.5C360 425.05 413.726 479 480 479V418.75C446.863 418.75 420 391.775 420 358.5C420 325.225 446.863 298.25 480 298.25V238Z" fill="#0A047A"/>
<path d="M480 238H481V237H480V238ZM480 479V480H481V479H480ZM480 418.75H481V417.75H480V418.75ZM480 298.25V299.25H481V298.25H480ZM480 237C413.17 237 359 291.401 359 358.5H361C361 292.498 414.282 239 480 239V237ZM359 358.5C359 425.599 413.17 480 480 480V478C414.282 478 361 424.502 361 358.5H359ZM481 479V418.75H479V479H481ZM419 358.5C419 392.324 446.307 419.75 480 419.75V417.75C447.419 417.75 421 391.227 421 358.5H419ZM480 297.25C446.307 297.25 419 324.676 419 358.5H421C421 325.773 447.419 299.25 480 299.25V297.25ZM481 298.25V238H479V298.25H481Z" fill="#0A047A" mask="url(#path-15-inside-1_13_2)"/>
<path fill-rule="evenodd" clip-rule="evenodd" d="M480 479C546.274 479 600 425.274 600 359C600 292.726 546.274 239 480 239V299C513.137 299 540 325.863 540 359C540 392.137 513.137 419 480 419V479Z" fill="#FEC810"/>
<path fill-rule="evenodd" clip-rule="evenodd" d="M239.712 482L122 600.746H239.712V482Z" fill="#FEC810"/>
<path fill-rule="evenodd" clip-rule="evenodd" d="M478 118L600 235.712V118H478Z" fill="#FEC810"/>
<path fill-rule="evenodd" clip-rule="evenodd" d="M360 117.746L477.712 -1L360 -1V117.746Z" fill="#0A047A"/>
<path fill-rule="evenodd" clip-rule="evenodd" d="M212.613 338.845L282.614 187L172 227.26L212.613 338.845Z" fill="#FEC810"/>
<rect x="240" y="540" width="60" height="60" fill="#2B6AFF"/>
<rect x="420" y="60" width="60" height="60" fill="#FF80ED"/>
<path fill-rule="evenodd" clip-rule="evenodd" d="M360 0H0V360H360V0ZM180 343C270.022 343 343 270.022 343 180C343 89.9776 270.022 17 180 17C89.9776 17 17 89.9776 17 180C17 270.022 89.9776 343 180 343Z" fill="#2B6AFF"/>
<circle cx="120" cy="263" r="60" fill="#0A047A"/>
<circle cx="278" cy="270" r="30" fill="#0A047A"/>
<circle cx="330" cy="511" r="30" fill="#FF80ED"/>
<circle cx="480" cy="360" r="30" fill="#FF80ED"/>
<circle cx="160" cy="327" r="15" fill="#FEC810"/>
<circle cx="190" cy="327" r="15" fill="#2B6AFF"/>
<circle cx="248" cy="145" r="15" fill="#FEC810"/>
<rect x="76.6146" y="205.803" width="30" height="240" transform="rotate(-95 76.6146 205.803)" fill="#FF80ED"/>
<rect x="300" y="360" width="60" height="120" fill="#0A047A"/>
<rect x="362" y="481" width="60" height="120" fill="#0A047A"/>
<circle cx="420" cy="179" r="60" fill="#0A047A"/>
</g>
<defs>
<clipPath id="clip0_13_2">
<rect width="600" height="600" fill="white"/>
</clipPath>
</defs>
</svg>
