<svg width="600" height="600" viewBox="0 0 600 600" fill="none" xmlns="http://www.w3.org/2000/svg">
<g clip-path="url(#clip0_20_5)">
<g clip-path="url(#clip1_20_5)">
<g clip-path="url(#clip2_20_5)">
<path fill-rule="evenodd" clip-rule="evenodd" d="M150 525C150 483.579 116.421 450 75 450C33.5786 450 0 483.579 0 525H150Z" fill="#FF80ED"/>
<path fill-rule="evenodd" clip-rule="evenodd" d="M150 600C150 558.579 116.421 525 75 525C33.5786 525 0 558.579 0 600H150Z" fill="#FF80ED"/>
</g>
</g>
<g clip-path="url(#clip3_20_5)">
<g clip-path="url(#clip4_20_5)">
<path fill-rule="evenodd" clip-rule="evenodd" d="M375 600C416.421 600 450 566.421 450 525C450 483.579 416.421 450 375 450V600Z" fill="#2B6AFF"/>
<path fill-rule="evenodd" clip-rule="evenodd" d="M300 600C341.421 600 375 566.421 375 525C375 483.579 341.421 450 300 450V600Z" fill="#2B6AFF"/>
</g>
</g>
<g clip-path="url(#clip5_20_5)">
<path fill-rule="evenodd" clip-rule="evenodd" d="M525 450C483.579 450 450 483.579 450 525C450 566.421 483.579 600 525 600V450Z" fill="#FEC810"/>
<path fill-rule="evenodd" clip-rule="evenodd" d="M600 450C558.579 450 525 483.579 525 525C525 566.421 558.579 600 600 600L600 450Z" fill="#FEC810"/>
</g>
<g clip-path="url(#clip6_20_5)">
<g clip-path="url(#clip7_20_5)">
<path fill-rule="evenodd" clip-rule="evenodd" d="M300 375C300 416.421 333.579 450 375 450C416.421 450 450 416.421 450 375L300 375Z" fill="#2B6AFF"/>
<path fill-rule="evenodd" clip-rule="evenodd" d="M300 300C300 341.421 333.579 375 375 375C416.421 375 450 341.421 450 300L300 300Z" fill="#2B6AFF"/>
</g>
</g>
<path fill-rule="evenodd" clip-rule="evenodd" d="M375 0C333.579 0 300 33.5786 300 75C300 116.421 333.579 150 375 150V0Z" fill="#2B6AFF"/>
<path fill-rule="evenodd" clip-rule="evenodd" d="M450 0C408.579 0 375 33.5786 375 75C375 116.421 408.579 150 450 150V0Z" fill="#2B6AFF"/>
<g clip-path="url(#clip8_20_5)">
<g clip-path="url(#clip9_20_5)">
<path fill-rule="evenodd" clip-rule="evenodd" d="M600 75C600 33.5786 566.421 0 525 0C483.579 0 450 33.5786 450 75L600 75Z" fill="#FEC810"/>
<path fill-rule="evenodd" clip-rule="evenodd" d="M600 150C600 108.579 566.421 75 525 75C483.579 75 450 108.579 450 150H600Z" fill="#FEC810"/>
</g>
</g>
<path fill-rule="evenodd" clip-rule="evenodd" d="M152.027 -3.93949e-06C152.027 82.166 218.092 148.902 300 149.987V75C258.019 75 223.986 41.4214 223.986 -3.93949e-06L152.027 -3.93949e-06Z" fill="#FF80ED"/>
<path fill-rule="evenodd" clip-rule="evenodd" d="M302.027 150L373.986 150C373.986 191.421 408.019 225 450 225V299.987C368.092 298.902 302.027 232.166 302.027 150Z" fill="#2B6AFF"/>
<path fill-rule="evenodd" clip-rule="evenodd" d="M450 297.973V226.014C491.421 226.014 525 191.981 525 150L599.987 150C598.902 231.908 532.166 297.973 450 297.973Z" fill="#FEC810"/>
<path fill-rule="evenodd" clip-rule="evenodd" d="M150 447.973L150 376.014C191.421 376.014 225 341.981 225 300H299.987C298.902 381.908 232.166 447.973 150 447.973Z" fill="#FEC810"/>
<path fill-rule="evenodd" clip-rule="evenodd" d="M-2 -0.00012207L-2 95.1807L111.334 0.082222L111.265 -0.00012207L-2 -0.00012207Z" fill="#C4C4C4"/>
<path fill-rule="evenodd" clip-rule="evenodd" d="M113.129 150L130.718 84.3558L-2 48.794L-2 150L113.129 150Z" fill="#C4C4C4"/>
<path fill-rule="evenodd" clip-rule="evenodd" d="M73 150C31.5786 150 -2 183.579 -2 225C-2 266.421 31.5786 300 73 300L73 150Z" fill="#0A047A"/>
<path fill-rule="evenodd" clip-rule="evenodd" d="M148 150C106.579 150 73 183.579 73 225C73 266.421 106.579 300 148 300V150Z" fill="#0A047A"/>
<path fill-rule="evenodd" clip-rule="evenodd" d="M-2 -0.00012207L-2 95.1807L111.334 0.082222L111.265 -0.00012207L-2 -0.00012207Z" fill="#FEC810"/>
<path fill-rule="evenodd" clip-rule="evenodd" d="M113.129 150L130.718 84.3558L-2 48.794L-2 150L113.129 150Z" fill="#FEC810"/>
<path fill-rule="evenodd" clip-rule="evenodd" d="M150 448L150 352.819L36.6661 447.918L36.7352 448H150Z" fill="#0A047A"/>
<path fill-rule="evenodd" clip-rule="evenodd" d="M34.8709 298L17.2816 363.644L150 399.206L150 298H34.8709Z" fill="#0A047A"/>
<path fill-rule="evenodd" clip-rule="evenodd" d="M150 600H245.181L150.082 486.666L150 486.735V600Z" fill="#0A047A"/>
<path fill-rule="evenodd" clip-rule="evenodd" d="M300 484.871L234.356 467.282L198.794 600H300V484.871Z" fill="#0A047A"/>
<path fill-rule="evenodd" clip-rule="evenodd" d="M602 450V354.819L488.666 449.918L488.735 450H602Z" fill="#FF80ED"/>
<path fill-rule="evenodd" clip-rule="evenodd" d="M486.871 300L469.282 365.644L602 401.206V300H486.871Z" fill="#FF80ED"/>
<path fill-rule="evenodd" clip-rule="evenodd" d="M146 150L146 245.181L259.334 150.082L259.265 150L146 150Z" fill="#0A047A"/>
<path fill-rule="evenodd" clip-rule="evenodd" d="M261.129 300L278.718 234.356L146 198.794L146 300L261.129 300Z" fill="#0A047A"/>
</g>
<defs>
<clipPath id="clip0_20_5">
<rect width="600" height="600" fill="white"/>
</clipPath>
<clipPath id="clip1_20_5">
<rect width="150" height="150" fill="white" transform="translate(0 450)"/>
</clipPath>
<clipPath id="clip2_20_5">
<rect width="150" height="150" fill="white" transform="translate(150 450) rotate(90)"/>
</clipPath>
<clipPath id="clip3_20_5">
<rect width="150" height="150" fill="white" transform="translate(300 450)"/>
</clipPath>
<clipPath id="clip4_20_5">
<rect width="150" height="150" fill="white" transform="translate(450 600) rotate(-180)"/>
</clipPath>
<clipPath id="clip5_20_5">
<rect width="150" height="150" fill="white" transform="translate(600 600) rotate(-180)"/>
</clipPath>
<clipPath id="clip6_20_5">
<rect width="150" height="150" fill="white" transform="translate(300 300)"/>
</clipPath>
<clipPath id="clip7_20_5">
<rect width="150" height="150" fill="white" transform="translate(450 450) rotate(-180)"/>
</clipPath>
<clipPath id="clip8_20_5">
<rect width="150" height="150" fill="white" transform="translate(450)"/>
</clipPath>
<clipPath id="clip9_20_5">
<rect width="150" height="150" fill="white" transform="translate(600) rotate(90)"/>
</clipPath>
</defs>
</svg>
