<svg width="600" height="600" viewBox="0 0 600 600" fill="none" xmlns="http://www.w3.org/2000/svg">
<g clip-path="url(#clip0_13_2)">
<circle cx="60" cy="419" r="60" fill="#FF80ED"/>
<rect y="359" width="120" height="60" fill="#FF80ED"/>
<rect x="60" y="359" width="60" height="120" fill="#FF80ED"/>
<circle cx="540" cy="539" r="60" transform="rotate(-90 540 539)" fill="#0A047A"/>
<rect x="480" y="599" width="120" height="60" transform="rotate(-90 480 599)" fill="#0A047A"/>
<rect x="480" y="539" width="60" height="120" transform="rotate(-90 480 539)" fill="#0A047A"/>
<path fill-rule="evenodd" clip-rule="evenodd" d="M120.008 419C120.003 419.333 120 419.666 120 420C120 453.137 146.863 480 180 480C213.137 480 240 453.137 240 420C240 386.863 213.137 360 180 360C179.331 360 178.664 360.011 178 360.033V419H120.008Z" fill="#2B6AFF"/>
<mask id="mask0_13_2" style="mask-type:alpha" maskUnits="userSpaceOnUse" x="0" y="480" width="120" height="120">
<circle cx="60" cy="540" r="60" fill="#0A047A"/>
</mask>
<g mask="url(#mask0_13_2)">
<rect x="60" y="481" width="60" height="59" fill="#2B6AFF"/>
</g>
<mask id="mask1_13_2" style="mask-type:alpha" maskUnits="userSpaceOnUse" x="-53" y="487" width="165" height="165">
<rect width="151.872" height="80.4031" transform="matrix(-0.707107 -0.707107 -0.707107 0.707107 111.244 594.39)" fill="#C4C4C4"/>
</mask>
<g mask="url(#mask1_13_2)">
<circle cx="60.4757" cy="538.076" r="60" fill="#0A047A"/>
</g>
<path fill-rule="evenodd" clip-rule="evenodd" d="M600 119C600 85.8629 573.137 59 540 59C506.863 59 480 85.8629 480 119H600Z" fill="#2B6AFF"/>
<path fill-rule="evenodd" clip-rule="evenodd" d="M600 59C600 25.8629 573.137 -1 540 -1C506.863 -1 480 25.8629 480 59H600Z" fill="#2B6AFF"/>
<path fill-rule="evenodd" clip-rule="evenodd" d="M480 479C446.863 479 420 505.863 420 539C420 572.137 446.863 599 480 599V479Z" fill="#FEC810"/>
<path fill-rule="evenodd" clip-rule="evenodd" d="M480 241C413.726 241 360 294.726 360 361C360 427.274 413.726 481 480 481V421C446.863 421 420 394.137 420 361C420 327.863 446.863 301 480 301V241Z" fill="#C4C4C4"/>
<path fill-rule="evenodd" clip-rule="evenodd" d="M480 241C413.726 241 360 294.726 360 361C360 427.274 413.726 481 480 481V421C446.863 421 420 394.137 420 361C420 327.863 446.863 301 480 301V241Z" fill="#0A047A"/>
<path fill-rule="evenodd" clip-rule="evenodd" d="M480 480C546.274 480 600 426.274 600 360C600 293.726 546.274 240 480 240V300C513.137 300 540 326.863 540 360C540 393.137 513.137 420 480 420V480Z" fill="#FEC810"/>
<path fill-rule="evenodd" clip-rule="evenodd" d="M239.712 482L122 600.746H239.712V482Z" fill="#FEC810"/>
<path fill-rule="evenodd" clip-rule="evenodd" d="M478 118L600 235.712V118H478Z" fill="#FEC810"/>
<path fill-rule="evenodd" clip-rule="evenodd" d="M360 117.746L477.712 -1.00001L360 -1.00001V117.746Z" fill="#0A047A"/>
<path fill-rule="evenodd" clip-rule="evenodd" d="M251.613 344.845L321.614 193L211 233.26L251.613 344.845Z" fill="#FEC810"/>
<rect x="240" y="540" width="60" height="60" fill="#2B6AFF"/>
<rect x="420" y="60" width="60" height="60" fill="#FF80ED"/>
<path fill-rule="evenodd" clip-rule="evenodd" d="M180 360C279.411 360 360 279.411 360 180V360H180ZM0 180C0 279.411 80.5887 360 180 360H0V180ZM180 0C80.5887 0 0 80.5887 0 180V0H180ZM180 0H360V180C360 80.5887 279.411 0 180 0Z" fill="#2B6AFF"/>
<circle cx="131" cy="290" r="60" fill="#0A047A"/>
<circle cx="210" cy="330" r="30" fill="#0A047A"/>
<circle cx="330" cy="511" r="30" fill="#FF80ED"/>
<circle cx="480" cy="360" r="30" fill="#FF80ED"/>
<circle cx="146" cy="215" r="15" fill="#FEC810"/>
<circle cx="285" cy="305" r="15" fill="#2B6AFF"/>
<circle cx="56" cy="290" r="15" fill="#FEC810"/>
<rect x="104" y="84.6787" width="30" height="240" transform="rotate(-25 104 84.6787)" fill="#FF80ED"/>
<rect x="300" y="360" width="60" height="120" fill="#0A047A"/>
<rect x="362" y="481" width="60" height="120" fill="#0A047A"/>
<circle cx="420" cy="179" r="60" fill="#0A047A"/>
</g>
<defs>
<clipPath id="clip0_13_2">
<rect width="600" height="600" fill="white"/>
</clipPath>
</defs>
</svg>
