<?xml version="1.0" encoding="utf-8"?>
<!-- Generator: Adobe Illustrator 24.3.0, SVG Export Plug-In . SVG Version: 6.00 Build 0)  -->
<svg version="1.1" id="Ebene_1" xmlns="http://www.w3.org/2000/svg" xmlns:xlink="http://www.w3.org/1999/xlink" x="0px" y="0px"
	 viewBox="0 0 763 127.72" style="enable-background:new 0 0 763 127.72;" xml:space="preserve">
<style type="text/css">
	.st0{fill:#0A1438;}
</style>
<g>
	<g>
		<g>
			<path class="st0" d="M198.83,27.82c-7.53,0-12.05,2.75-16.99,6.59v-5.08h-24.67v98.39l24.67-9.87V96.48
				c3.97,3.02,8.9,6.31,16.03,6.31c15.76,0,24.94-11.92,24.94-37.69C222.81,38.38,212.4,27.82,198.83,27.82z M181.84,51.54
				c2.61-2.06,5.2-3.43,8.77-3.43c5.2,0,7.81,3.43,7.81,17.81c0,13.43-2.61,16.59-7.67,16.59c-3.84,0-6.3-1.38-8.9-3.43V51.54"/>
			<rect x="236.24" y="29.33" class="st0" width="24.67" height="71.95"/>
			<path class="st0" d="M248.57,0c-8.08,0-14.11,4.93-14.11,11.93c0,7.53,6.03,12.2,14.11,12.2c8.51,0,14.39-4.67,14.39-12.2
				C262.96,4.93,257.08,0,248.57,0z"/>
			<path class="st0" d="M319.69,27.82c-8.49,0-13.56,2.88-18.08,6.31v-4.8h-24.67v71.95h24.67V60.16c0-9.05,3.15-11.51,8.36-11.51
				c5.07,0,8.22,2.46,8.22,11.79v40.84h24.8V57.29C342.98,38.38,335.45,27.82,319.69,27.82z"/>
			<path class="st0" d="M389.03,27.82c-19.87,0-34.12,12.34-34.12,37.41c0,24.82,14.25,37.55,34.12,37.55s34.26-12.74,34.26-37.55
				C423.29,40.16,408.9,27.82,389.03,27.82z M389.03,82.77c-6.44,0-9.72-5.61-9.72-17.54c0-12.18,3.28-17.4,9.72-17.4
				s9.74,5.21,9.74,17.4C398.77,77.16,395.47,82.77,389.03,82.77z"/>
			<path class="st0" d="M467.41,82.77c-6.71,0-10.13-5.89-10.13-17.26s3.15-17.67,9.45-17.67c5.34,0,7.67,3.02,11.1,9.31l17-12.88
				c-6.31-10.13-14.11-16.44-27.69-16.44c-23.02,0-34.25,15.21-34.25,37.28c0,24.26,12.61,37.69,33.71,37.69
				c12.74,0,20.56-4.8,28.92-17.13l-15.62-12.2C475.36,80.18,472.07,82.77,467.41,82.77z"/>
			<path class="st0" d="M537.03,82.77c-6.71,0-10.13-5.89-10.13-17.26s3.15-17.67,9.45-17.67c5.34,0,7.67,3.02,11.1,9.31l17-12.88
				c-6.31-10.13-14.11-16.44-27.69-16.44c-23.02,0-34.25,15.21-34.25,37.28c0,24.26,12.61,37.69,33.71,37.69
				c12.74,0,20.56-4.8,28.92-17.13l-15.62-12.2C544.98,80.18,541.69,82.77,537.03,82.77z"/>
			<path class="st0" d="M619.39,27.82c-8.49,0-13.56,2.88-18.08,6.31V1.38l-24.67,9.87v90.03h24.67V60.16
				c0-9.05,3.15-11.51,8.36-11.51c5.07,0,8.22,2.46,8.22,11.79v40.84h24.8V57.29C642.69,38.38,635.16,27.82,619.39,27.82z"/>
			<rect x="658.18" y="29.33" class="st0" width="24.67" height="71.95"/>
			<path class="st0" d="M670.51,0c-8.08,0-14.11,4.93-14.11,11.93c0,7.53,6.03,12.2,14.11,12.2c8.51,0,14.39-4.67,14.39-12.2
				C684.9,4.93,679.01,0,670.51,0z"/>
			<path class="st0" d="M729.43,29.33c-19.47,0-33.43,12.09-33.43,36.66c0,24.32,13.96,36.8,33.43,36.8S763,90.31,763,65.99
				C763,41.42,748.9,29.33,729.43,29.33z M729.43,83.17c-6.31,0-9.53-5.5-9.53-17.19c0-11.94,3.22-17.05,9.53-17.05
				c6.31,0,9.54,5.11,9.54,17.05C738.97,77.68,735.74,83.17,729.43,83.17z"/>
		</g>
		<path class="st0" d="M100.02,57.08H88.74C85.26,30.99,67.79,18.12,44.6,18.12c-0.71,0-44.6,0-44.6,0l0.04,51.22
			c0.87,30.91,19.21,46.78,44.56,46.78c22.75,0,40-12.78,43.94-37.74h11.48c5.88,0,10.65-4.77,10.65-10.65S105.9,57.08,100.02,57.08
			z M44.61,82.77c-9.1,0-16.47-7.37-16.47-16.47s7.37-16.47,16.47-16.47S61.08,57.2,61.08,66.3S53.7,82.77,44.61,82.77z"/>
	</g>
</g>
</svg>
