<?xml version="1.0" encoding="utf-8"?>
<!-- Generator: Adobe Illustrator 24.3.0, SVG Export Plug-In . SVG Version: 6.00 Build 0)  -->
<svg version="1.1" id="Ebene_1" xmlns="http://www.w3.org/2000/svg" xmlns:xlink="http://www.w3.org/1999/xlink" x="0px" y="0px"
	 viewBox="0 0 885.91 237.95" style="enable-background:new 0 0 885.91 237.95;" xml:space="preserve">
<style type="text/css">
	.st0{fill:#0A1438;}
	.st1{fill:#FFFFFF;}
</style>
<rect y="0" class="st0" width="885.91" height="237.95"/>
<g>
	<g>
		<g>
			<path class="st1" d="M260.28,82.93c-7.53,0-12.05,2.75-16.99,6.59v-5.08h-24.67v98.39l24.67-9.87v-21.38
				c3.97,3.02,8.9,6.31,16.03,6.31c15.76,0,24.94-11.92,24.94-37.69C284.27,93.49,273.86,82.93,260.28,82.93z M243.3,106.65
				c2.61-2.06,5.2-3.43,8.77-3.43c5.2,0,7.81,3.43,7.81,17.81c0,13.43-2.61,16.59-7.67,16.59c-3.84,0-6.3-1.38-8.9-3.43v-27.54"/>
			<rect x="297.69" y="84.44" class="st1" width="24.67" height="71.95"/>
			<path class="st1" d="M310.02,55.11c-8.08,0-14.11,4.93-14.11,11.93c0,7.53,6.03,12.2,14.11,12.2c8.51,0,14.39-4.67,14.39-12.2
				C324.42,60.05,318.53,55.11,310.02,55.11z"/>
			<path class="st1" d="M381.14,82.93c-8.49,0-13.56,2.88-18.08,6.31v-4.8h-24.67v71.95h24.67v-41.11c0-9.05,3.15-11.51,8.36-11.51
				c5.07,0,8.22,2.46,8.22,11.79v40.84h24.8v-44C404.44,93.49,396.91,82.93,381.14,82.93z"/>
			<path class="st1" d="M450.48,82.93c-19.87,0-34.12,12.34-34.12,37.41c0,24.82,14.25,37.56,34.12,37.56s34.26-12.74,34.26-37.56
				C484.75,95.27,470.35,82.93,450.48,82.93z M450.48,137.88c-6.44,0-9.72-5.61-9.72-17.54c0-12.18,3.28-17.4,9.72-17.4
				s9.74,5.21,9.74,17.4C460.22,132.27,456.93,137.88,450.48,137.88z"/>
			<path class="st1" d="M528.86,137.88c-6.71,0-10.13-5.89-10.13-17.26s3.15-17.67,9.45-17.67c5.34,0,7.67,3.02,11.1,9.31l17-12.88
				c-6.31-10.13-14.11-16.44-27.69-16.44c-23.02,0-34.25,15.21-34.25,37.28c0,24.26,12.61,37.69,33.71,37.69
				c12.74,0,20.56-4.8,28.92-17.13l-15.62-12.2C536.81,135.29,533.52,137.88,528.86,137.88z"/>
			<path class="st1" d="M598.48,137.88c-6.71,0-10.13-5.89-10.13-17.26s3.15-17.67,9.45-17.67c5.34,0,7.67,3.02,11.1,9.31l17-12.88
				c-6.31-10.13-14.11-16.44-27.69-16.44c-23.02,0-34.25,15.21-34.25,37.28c0,24.26,12.61,37.69,33.71,37.69
				c12.74,0,20.56-4.8,28.92-17.13l-15.62-12.2C606.43,135.29,603.14,137.88,598.48,137.88z"/>
			<path class="st1" d="M680.84,82.93c-8.49,0-13.56,2.88-18.08,6.31V56.49l-24.67,9.87v90.03h24.67v-41.11
				c0-9.05,3.15-11.51,8.36-11.51c5.07,0,8.22,2.46,8.22,11.79v40.84h24.8v-44C704.14,93.49,696.61,82.93,680.84,82.93z"/>
			<rect x="719.63" y="84.44" class="st1" width="24.67" height="71.95"/>
			<path class="st1" d="M731.96,55.11c-8.08,0-14.11,4.93-14.11,11.93c0,7.53,6.03,12.2,14.11,12.2c8.51,0,14.39-4.67,14.39-12.2
				C746.35,60.05,740.46,55.11,731.96,55.11z"/>
			<path class="st1" d="M790.88,84.44c-19.47,0-33.43,12.09-33.43,36.66c0,24.32,13.96,36.8,33.43,36.8s33.57-12.48,33.57-36.8
				C824.45,96.53,810.35,84.44,790.88,84.44z M790.88,138.29c-6.31,0-9.53-5.5-9.53-17.19c0-11.94,3.22-17.05,9.53-17.05
				c6.31,0,9.54,5.11,9.54,17.05C800.42,132.79,797.19,138.29,790.88,138.29z"/>
		</g>
		<path class="st1" d="M161.47,112.19h-11.28c-3.48-26.09-20.95-38.96-44.14-38.96c-0.71,0-44.6,0-44.6,0l0.04,51.22
			c0.87,30.91,19.21,46.78,44.56,46.78c22.75,0,40-12.78,43.94-37.74h11.48c5.88,0,10.65-4.77,10.65-10.65
			C172.12,116.96,167.35,112.19,161.47,112.19z M106.06,137.88c-9.1,0-16.47-7.37-16.47-16.47s7.37-16.47,16.47-16.47
			s16.47,7.37,16.47,16.47S115.16,137.88,106.06,137.88z"/>
	</g>
</g>
</svg>
