<?xml version="1.0" encoding="utf-8"?>
<!-- Generator: Adobe Illustrator 24.3.0, SVG Export Plug-In . SVG Version: 6.00 Build 0)  -->
<svg version="1.1" id="Ebene_1" xmlns="http://www.w3.org/2000/svg" xmlns:xlink="http://www.w3.org/1999/xlink" x="0px" y="0px"
	 viewBox="0 0 237.17 237.95" style="enable-background:new 0 0 237.17 237.95;" xml:space="preserve">
<style type="text/css">
	.st0{fill:#0A1438;}
	.st1{fill:#FFFFFF;}
</style>
<rect y="0" class="st0" width="237.17" height="237.95"/>
<g>
	<g>
		<path class="st1" d="M167.87,112.19h-11.28c-3.48-26.09-20.95-38.96-44.14-38.96c-0.71,0-44.6,0-44.6,0l0.04,51.22
			c0.87,30.91,19.21,46.78,44.56,46.78c22.75,0,40-12.78,43.94-37.74h11.48c5.88,0,10.65-4.77,10.65-10.65
			C178.52,116.96,173.75,112.19,167.87,112.19z M112.46,137.88c-9.1,0-16.47-7.37-16.47-16.47s7.37-16.47,16.47-16.47
			s16.47,7.37,16.47,16.47S121.56,137.88,112.46,137.88z"/>
	</g>
</g>
</svg>
