<?xml version="1.0" encoding="utf-8"?>
<!-- Generator: Adobe Illustrator 24.3.0, SVG Export Plug-In . SVG Version: 6.00 Build 0)  -->
<svg version="1.1" id="Ebene_1" xmlns="http://www.w3.org/2000/svg" x="0px"
     y="0px"
     viewBox="0 0 224.12 198.46" style="enable-background:new 0 0 224.12 198.46;" xml:space="preserve">
<style type="text/css">
	.st0{fill:#0a047a;}
</style>
    <g>
	<g>
		<path class="st0" d="M202.56,78.9h-22.84C172.67,26.07,137.29,0,90.32,0C88.87,0,0,0,0,0l0.08,103.72
			c1.76,62.61,38.9,94.74,90.24,94.74c46.07,0,81.02-25.87,88.98-76.44h23.26c11.91,0,21.56-9.65,21.56-21.56
			S214.47,78.9,202.56,78.9z M90.34,130.93c-18.42,0-33.35-14.93-33.35-33.35c0-18.42,14.93-33.35,33.35-33.35
			s33.35,14.93,33.35,33.35C123.69,116,108.76,130.93,90.34,130.93z"/>
	</g>
</g>
</svg>
